M48
;GenerationSoftware,Autodesk,EAGLE,9.6.2*%
;CreationDate,2021-08-26T09:47:05Z*%
FMAT,2
ICI,OFF
METRIC,TZ,000.000
T3C0.350
T2C0.700
T1C0.900
%
G90
M71
T1
X26230Y48600
X23690Y48600
T2
X40540Y70000
X18670Y53400
X38000Y70000
X35460Y70000
X24040Y22000
X49040Y28000
X43960Y28000
X46500Y28000
X4130Y67570
X9210Y67570
X46500Y44190
X54120Y44190
X43880Y37380
X43880Y45000
X32690Y33520
X37770Y33520
X48870Y50900
X51410Y50900
X22930Y34190
X30550Y34190
X14800Y33520
X19880Y33520
X12750Y70500
X17830Y70500
X4680Y71270
X9760Y71270
X11330Y36810
X11330Y31730
X12372Y65570
X17452Y65570
X7130Y31650
X7130Y36730
X15990Y43520
X10910Y43520
X4520Y42900
X7060Y42900
X13550Y48870
X18630Y48870
X5020Y48520
X10100Y48520
X36220Y59900
X38760Y59900
X23440Y54170
X25440Y54170
X29400Y49080
X31940Y49080
X21470Y65570
X26550Y65570
X21330Y70870
X26410Y70870
X29170Y72270
X34250Y72270
X28950Y68140
X34030Y68140
X41580Y33520
X46660Y33520
X42440Y59870
X47520Y59870
X52310Y57330
X52310Y62410
X11500Y55000
X5290Y52360
X49040Y55000
X43960Y55000
X46500Y55000
X39280Y22000
X19450Y37270
X21990Y37270
X21990Y44890
X19450Y44890
X24530Y37270
X27070Y37270
X24530Y44890
X27070Y44890
X32020Y37270
X34560Y37270
X34560Y44890
X32020Y44890
X37100Y37270
X39640Y37270
X37100Y44890
X39640Y44890
X17690Y22000
X31540Y28000
X26460Y28000
X29000Y28000
X31660Y22000
X5290Y57440
X5290Y54900
X8960Y55000
X16130Y53400
X14040Y55000
X21210Y53400
X35950Y65520
X38490Y65520
X41030Y65520
X43870Y52060
X43870Y49520
X43870Y46980
X24460Y57360
X24460Y62440
X12460Y57360
X12460Y62440
X44460Y63510
X44460Y68590
X47460Y63510
X47460Y68590
X34000Y65000
X28920Y65000
X33460Y62440
X33460Y57360
X49920Y65800
X55000Y65800
X49920Y68100
X55000Y68100
X49920Y70400
X55000Y70400
X47920Y48200
X53000Y48200
X48000Y70500
X42920Y70500
X21460Y57360
X21460Y62440
X34920Y53200
X40000Y53200
X37460Y55740
X48920Y32000
X54000Y32000
X48920Y34300
X54000Y34300
X48920Y38900
X54000Y38900
X34250Y24980
X34250Y30060
X54000Y36600
X48920Y36600
X48920Y41200
X54000Y41200
X23920Y30500
X29000Y30500
X27920Y54800
X33000Y54800
X34920Y48100
X40000Y48100
X18460Y57360
X18460Y62440
X36460Y24860
X36460Y29940
X3460Y31460
X3460Y36540
X2920Y39500
X8000Y39500
X9920Y39500
X15000Y39500
X21460Y25360
X21460Y30440
X18460Y25060
X18460Y30140
X38630Y24980
X38630Y30060
X6460Y64440
X6460Y59360
X9460Y57360
X9460Y62440
X27460Y57360
X27460Y62440
X30460Y57360
X30460Y62440
X49920Y72600
X55000Y72600
X15460Y57360
X15460Y62440
X14040Y28000
X8960Y28000
X11500Y28000
T3
X10820Y28956
X18440Y28346
X17831Y36424
X21336Y27889
X10516Y25146
X17983Y51511
M30