G04 EAGLE Gerber RS-274X export*
G75*
%MOMM*%
%FSLAX34Y34*%
%LPD*%
%INTop Copper*%
%IPPOS*%
%AMOC8*
5,1,8,0,0,1.08239X$1,22.5*%
G01*
%ADD10R,1.208000X1.208000*%
%ADD11C,1.208000*%
%ADD12R,1.408000X1.408000*%
%ADD13C,1.408000*%
%ADD14P,1.307527X8X292.500000*%
%ADD15P,1.307527X8X22.500000*%
%ADD16C,0.152400*%
%ADD17C,0.756400*%


D10*
X240400Y220000D03*
X490400Y280000D03*
D11*
X439600Y280000D03*
X465000Y280000D03*
X41300Y675700D03*
X92100Y675700D03*
X465000Y441900D03*
X541200Y441900D03*
X438800Y373800D03*
X438800Y450000D03*
X326900Y335200D03*
X377700Y335200D03*
X488700Y509000D03*
X514100Y509000D03*
X229300Y341900D03*
X305500Y341900D03*
X148000Y335200D03*
X198800Y335200D03*
X127500Y705000D03*
X178300Y705000D03*
X46800Y712700D03*
X97600Y712700D03*
X113300Y368100D03*
X113300Y317300D03*
X123720Y655700D03*
X174520Y655700D03*
X71300Y316500D03*
X71300Y367300D03*
X159900Y435200D03*
X109100Y435200D03*
X45200Y429000D03*
X70600Y429000D03*
X135500Y488700D03*
X186300Y488700D03*
X50200Y485200D03*
X101000Y485200D03*
X362200Y599000D03*
X387600Y599000D03*
D10*
X234400Y541700D03*
D11*
X254400Y541700D03*
D10*
X294000Y490800D03*
D11*
X319400Y490800D03*
X214700Y655700D03*
X265500Y655700D03*
X213300Y708700D03*
X264100Y708700D03*
X291700Y722700D03*
X342500Y722700D03*
X289500Y681400D03*
X340300Y681400D03*
X415800Y335200D03*
X466600Y335200D03*
X424400Y598700D03*
X475200Y598700D03*
X523100Y573300D03*
X523100Y624100D03*
D12*
X236900Y486000D03*
D13*
X262300Y486000D03*
D10*
X490400Y550000D03*
D11*
X439600Y550000D03*
X465000Y550000D03*
D10*
X392800Y220000D03*
X194500Y372700D03*
D11*
X219900Y372700D03*
X219900Y448900D03*
X194500Y448900D03*
X245300Y372700D03*
X270700Y372700D03*
X245300Y448900D03*
X270700Y448900D03*
D10*
X320200Y372700D03*
D11*
X345600Y372700D03*
X345600Y448900D03*
X320200Y448900D03*
X371000Y372700D03*
X396400Y372700D03*
X371000Y448900D03*
X396400Y448900D03*
D10*
X176900Y220000D03*
X315400Y280000D03*
D11*
X264600Y280000D03*
X290000Y280000D03*
D10*
X316600Y220000D03*
D14*
X52900Y574400D03*
X52900Y549000D03*
X52900Y523600D03*
D15*
X161300Y534000D03*
X186700Y534000D03*
X212100Y534000D03*
X359500Y655200D03*
X384900Y655200D03*
X410300Y655200D03*
D14*
X438700Y520600D03*
X438700Y495200D03*
X438700Y469800D03*
D11*
X244600Y573600D03*
X244600Y624400D03*
X124600Y573600D03*
X124600Y624400D03*
X444600Y635100D03*
X444600Y685900D03*
X474600Y635100D03*
X474600Y685900D03*
X340000Y650000D03*
X289200Y650000D03*
X334600Y624400D03*
X334600Y573600D03*
X499200Y658000D03*
X550000Y658000D03*
X499200Y681000D03*
X550000Y681000D03*
X499200Y704000D03*
X550000Y704000D03*
X479200Y482000D03*
X530000Y482000D03*
X480000Y705000D03*
X429200Y705000D03*
X214600Y573600D03*
X214600Y624400D03*
D15*
X349200Y532000D03*
X400000Y532000D03*
X374600Y557400D03*
D11*
X489200Y320000D03*
X540000Y320000D03*
X489200Y343000D03*
X540000Y343000D03*
X489200Y389000D03*
X540000Y389000D03*
X342500Y249800D03*
X342500Y300600D03*
X540000Y366000D03*
X489200Y366000D03*
X489200Y412000D03*
X540000Y412000D03*
X239200Y305000D03*
X290000Y305000D03*
X279200Y548000D03*
X330000Y548000D03*
X349200Y481000D03*
X400000Y481000D03*
X184600Y573600D03*
X184600Y624400D03*
X364600Y248600D03*
X364600Y299400D03*
X34600Y314600D03*
X34600Y365400D03*
X29200Y395000D03*
X80000Y395000D03*
X99200Y395000D03*
X150000Y395000D03*
X214600Y253600D03*
X214600Y304400D03*
X184600Y250600D03*
X184600Y301400D03*
X386300Y249800D03*
X386300Y300600D03*
X64600Y644400D03*
X64600Y593600D03*
X94600Y573600D03*
X94600Y624400D03*
X274600Y573600D03*
X274600Y624400D03*
X304600Y573600D03*
X304600Y624400D03*
X499200Y726000D03*
X550000Y726000D03*
X154600Y573600D03*
X154600Y624400D03*
D10*
X140400Y280000D03*
D11*
X89600Y280000D03*
X115000Y280000D03*
D10*
X140400Y550000D03*
D11*
X89600Y550000D03*
X115000Y550000D03*
D15*
X354600Y700000D03*
X380000Y700000D03*
X405400Y700000D03*
D16*
X176784Y220980D02*
X161544Y220980D01*
X102108Y280416D01*
X102108Y335280D01*
X176784Y409956D01*
X176784Y502920D01*
X202692Y528828D01*
X202692Y536448D01*
X239268Y573024D01*
X243840Y573024D01*
X176784Y220980D02*
X176900Y220000D01*
X243840Y573024D02*
X244600Y573600D01*
X243840Y624840D02*
X214884Y624840D01*
X214600Y624400D01*
X243840Y624840D02*
X244600Y624400D01*
X123444Y656844D02*
X60960Y656844D01*
X42672Y675132D01*
X123444Y656844D02*
X123720Y655700D01*
X42672Y675132D02*
X41300Y675700D01*
X196596Y624840D02*
X213360Y624840D01*
X196596Y624840D02*
X175260Y646176D01*
X134112Y646176D01*
X124968Y655320D01*
X213360Y624840D02*
X214600Y624400D01*
X124968Y655320D02*
X123720Y655700D01*
X185928Y574548D02*
X198120Y574548D01*
X239268Y615696D01*
X248412Y615696D01*
X252984Y620268D01*
X252984Y627888D01*
X234696Y646176D01*
X184404Y646176D01*
X175260Y655320D01*
X185928Y574548D02*
X184600Y573600D01*
X175260Y655320D02*
X174520Y655700D01*
X195072Y373380D02*
X219456Y373380D01*
X195072Y373380D02*
X194500Y372700D01*
X219456Y373380D02*
X219900Y372700D01*
X184404Y585216D02*
X184404Y623316D01*
X184404Y585216D02*
X175260Y576072D01*
X175260Y569976D01*
X181356Y563880D01*
X192024Y563880D01*
X213360Y585216D01*
X249936Y585216D01*
X256032Y579120D01*
X256032Y563880D01*
X251460Y559308D02*
X234696Y542544D01*
X251460Y559308D02*
X256032Y563880D01*
X184404Y623316D02*
X184600Y624400D01*
X234696Y542544D02*
X234400Y541700D01*
X374904Y301752D02*
X385572Y301752D01*
X374904Y301752D02*
X368808Y307848D01*
X348996Y307848D01*
X342900Y301752D01*
X385572Y301752D02*
X386300Y300600D01*
X342900Y301752D02*
X342500Y300600D01*
X272796Y537972D02*
X251460Y559308D01*
X272796Y537972D02*
X272796Y463296D01*
X254508Y445008D01*
X254508Y321564D01*
X239268Y306324D01*
X239200Y305000D01*
X53340Y550164D02*
X53340Y553212D01*
X123444Y623316D01*
X53340Y550164D02*
X52900Y549000D01*
X123444Y623316D02*
X124600Y624400D01*
X124968Y624840D02*
X153924Y624840D01*
X154600Y624400D01*
X124968Y624840D02*
X124600Y624400D01*
X135636Y544068D02*
X135636Y489204D01*
X135636Y544068D02*
X140208Y548640D01*
X135636Y489204D02*
X135500Y488700D01*
X140208Y548640D02*
X140400Y550000D01*
X213360Y551688D02*
X213360Y573024D01*
X213360Y551688D02*
X195072Y533400D01*
X195072Y530352D01*
X188976Y524256D01*
X182880Y524256D01*
X158496Y548640D01*
X141732Y548640D01*
X213360Y573024D02*
X214600Y573600D01*
X141732Y548640D02*
X140400Y550000D01*
X123444Y573024D02*
X96012Y573024D01*
X94600Y573600D01*
X123444Y573024D02*
X124600Y573600D01*
X124968Y573024D02*
X141732Y573024D01*
X153924Y573024D01*
X154600Y573600D01*
X124968Y573024D02*
X124600Y573600D01*
X141732Y573024D02*
X141732Y550164D01*
X140400Y550000D01*
X438912Y451104D02*
X448056Y451104D01*
X463296Y466344D02*
X478536Y481584D01*
X463296Y466344D02*
X448056Y451104D01*
X438912Y451104D02*
X438800Y450000D01*
X478536Y481584D02*
X479200Y482000D01*
X391668Y243840D02*
X391668Y220980D01*
X391668Y243840D02*
X387096Y248412D01*
X391668Y220980D02*
X392800Y220000D01*
X387096Y248412D02*
X386300Y249800D01*
X489204Y344424D02*
X489204Y365760D01*
X489204Y344424D02*
X489200Y343000D01*
X489204Y365760D02*
X489200Y366000D01*
X533400Y411480D02*
X539496Y411480D01*
X525780Y403860D02*
X489204Y367284D01*
X525780Y403860D02*
X533400Y411480D01*
X539496Y411480D02*
X540000Y412000D01*
X489204Y367284D02*
X489200Y366000D01*
X525780Y403860D02*
X463296Y466344D01*
X550164Y681228D02*
X550164Y702564D01*
X550164Y681228D02*
X550000Y681000D01*
X550164Y702564D02*
X550000Y704000D01*
X550164Y704088D02*
X550164Y725424D01*
X550000Y726000D01*
X550164Y704088D02*
X550000Y704000D01*
X475488Y673608D02*
X475488Y635508D01*
X475488Y673608D02*
X483108Y681228D01*
X483108Y701040D01*
X480060Y704088D01*
X475488Y635508D02*
X474600Y635100D01*
X480060Y704088D02*
X480000Y705000D01*
X333756Y573024D02*
X304800Y573024D01*
X304600Y573600D01*
X333756Y573024D02*
X334600Y573600D01*
X230124Y452628D02*
X230124Y342900D01*
X230124Y452628D02*
X262128Y484632D01*
X230124Y342900D02*
X229300Y341900D01*
X262128Y484632D02*
X262300Y486000D01*
X254508Y493776D02*
X254508Y531876D01*
X254508Y541020D01*
X254508Y493776D02*
X262128Y486156D01*
X254508Y541020D02*
X254400Y541700D01*
X262128Y486156D02*
X262300Y486000D01*
X409956Y449580D02*
X437388Y449580D01*
X409956Y449580D02*
X397764Y437388D01*
X344424Y437388D01*
X339852Y441960D02*
X320040Y461772D01*
X339852Y441960D02*
X344424Y437388D01*
X320040Y461772D02*
X320040Y490728D01*
X437388Y449580D02*
X438800Y450000D01*
X320040Y490728D02*
X319400Y490800D01*
X233172Y574548D02*
X214884Y574548D01*
X233172Y574548D02*
X240792Y582168D01*
X248412Y582168D01*
X252984Y577596D01*
X252984Y569976D01*
X233172Y550164D01*
X227076Y550164D01*
X225552Y548640D01*
X225552Y534924D01*
X228600Y531876D01*
X254508Y531876D01*
X214600Y573600D02*
X214884Y574548D01*
X339852Y441960D02*
X271272Y373380D01*
X270700Y372700D01*
X397764Y373380D02*
X397764Y437388D01*
X397764Y373380D02*
X396400Y372700D01*
X51816Y560832D02*
X51816Y573024D01*
X51816Y560832D02*
X44196Y553212D01*
X44196Y545592D01*
X50292Y539496D01*
X56388Y539496D01*
X85344Y568452D01*
X85344Y577596D01*
X89916Y582168D01*
X158496Y582168D01*
X185928Y554736D01*
X185928Y534924D01*
X52900Y574400D02*
X51816Y573024D01*
X185928Y534924D02*
X186700Y534000D01*
X277368Y722376D02*
X291084Y722376D01*
X277368Y722376D02*
X265176Y710184D01*
X291084Y722376D02*
X291700Y722700D01*
X265176Y710184D02*
X264100Y708700D01*
X225552Y708660D02*
X213360Y708660D01*
X225552Y708660D02*
X280416Y653796D01*
X280416Y646176D01*
X303276Y623316D01*
X213360Y708660D02*
X213300Y708700D01*
X303276Y623316D02*
X304600Y624400D01*
X301752Y220980D02*
X240792Y220980D01*
X301752Y220980D02*
X329184Y248412D01*
X341376Y248412D01*
X240792Y220980D02*
X240400Y220000D01*
X341376Y248412D02*
X342500Y249800D01*
X179832Y515112D02*
X161544Y533400D01*
X161300Y534000D01*
X358140Y556260D02*
X373380Y556260D01*
X333756Y531876D02*
X294132Y492252D01*
X333756Y531876D02*
X358140Y556260D01*
X373380Y556260D02*
X374600Y557400D01*
X294132Y492252D02*
X294000Y490800D01*
X275844Y589788D02*
X275844Y615696D01*
X275844Y623316D01*
X275844Y589788D02*
X333756Y531876D01*
X275844Y623316D02*
X274600Y624400D01*
X345948Y699516D02*
X353568Y699516D01*
X345948Y699516D02*
X313944Y667512D01*
X313944Y621792D01*
X307848Y615696D01*
X275844Y615696D01*
X353568Y699516D02*
X354600Y700000D01*
D17*
X179832Y515112D03*
D16*
X320040Y457200D02*
X320040Y449580D01*
X320040Y457200D02*
X294132Y483108D01*
X294132Y490728D01*
X320040Y449580D02*
X320200Y448900D01*
X294132Y490728D02*
X294000Y490800D01*
X289560Y650748D02*
X289560Y681228D01*
X289560Y650748D02*
X289200Y650000D01*
X289560Y681228D02*
X289500Y681400D01*
X329184Y722376D02*
X341376Y722376D01*
X329184Y722376D02*
X289560Y682752D01*
X341376Y722376D02*
X342500Y722700D01*
X289560Y682752D02*
X289500Y681400D01*
X373380Y600456D02*
X387096Y600456D01*
X373380Y600456D02*
X350520Y623316D01*
X341376Y623316D02*
X335280Y623316D01*
X341376Y623316D02*
X350520Y623316D01*
X387096Y600456D02*
X387600Y599000D01*
X335280Y623316D02*
X334600Y624400D01*
X388620Y600456D02*
X438912Y550164D01*
X439600Y550000D01*
X387600Y599000D02*
X388620Y600456D01*
X341376Y623316D02*
X341376Y649224D01*
X340000Y650000D01*
X341376Y650748D02*
X341376Y681228D01*
X340300Y681400D01*
X341376Y650748D02*
X340000Y650000D01*
X490728Y717804D02*
X490728Y550164D01*
X490728Y717804D02*
X498348Y725424D01*
X490728Y550164D02*
X490400Y550000D01*
X498348Y725424D02*
X499200Y726000D01*
X385572Y661416D02*
X385572Y655320D01*
X385572Y661416D02*
X428244Y704088D01*
X385572Y655320D02*
X384900Y655200D01*
X428244Y704088D02*
X429200Y705000D01*
X359664Y679704D02*
X359664Y655320D01*
X359664Y679704D02*
X379476Y699516D01*
X359664Y655320D02*
X359500Y655200D01*
X379476Y699516D02*
X380000Y700000D01*
X359664Y653796D02*
X359664Y650748D01*
X420624Y589788D01*
X466344Y589788D01*
X473964Y597408D01*
X359664Y653796D02*
X359500Y655200D01*
X473964Y597408D02*
X475200Y598700D01*
X425196Y598932D02*
X425196Y615696D01*
X444600Y635100D01*
X425196Y598932D02*
X424400Y598700D01*
X445008Y635508D02*
X445008Y656844D01*
X473964Y685800D01*
X445008Y635508D02*
X444600Y635100D01*
X473964Y685800D02*
X474600Y685900D01*
X524256Y632460D02*
X524256Y624840D01*
X524256Y632460D02*
X548640Y656844D01*
X524256Y624840D02*
X523100Y624100D01*
X548640Y656844D02*
X550000Y658000D01*
X499872Y658368D02*
X499872Y679704D01*
X499200Y681000D01*
X499872Y658368D02*
X499200Y658000D01*
X487680Y495300D02*
X438912Y495300D01*
X487680Y495300D02*
X509016Y516636D01*
X509016Y693420D01*
X499872Y702564D01*
X438912Y495300D02*
X438700Y495200D01*
X499872Y702564D02*
X499200Y704000D01*
X387096Y531876D02*
X350520Y531876D01*
X387096Y531876D02*
X397764Y521208D01*
X437388Y521208D01*
X350520Y531876D02*
X349200Y532000D01*
X437388Y521208D02*
X438700Y520600D01*
X467868Y333756D02*
X473964Y333756D01*
X487680Y320040D01*
X467868Y333756D02*
X466600Y335200D01*
X487680Y320040D02*
X489200Y320000D01*
X489204Y390144D02*
X489204Y411480D01*
X489204Y390144D02*
X489200Y389000D01*
X489204Y411480D02*
X489200Y412000D01*
X466344Y434340D02*
X466344Y440436D01*
X466344Y434340D02*
X487680Y413004D01*
X466344Y440436D02*
X465000Y441900D01*
X487680Y413004D02*
X489200Y412000D01*
X365760Y335280D02*
X327660Y335280D01*
X365760Y335280D02*
X394716Y364236D01*
X428244Y364236D01*
X437388Y373380D01*
X327660Y335280D02*
X326900Y335200D01*
X437388Y373380D02*
X438800Y373800D01*
X452628Y388620D02*
X487680Y388620D01*
X452628Y388620D02*
X438912Y374904D01*
X487680Y388620D02*
X489200Y389000D01*
X438912Y374904D02*
X438800Y373800D01*
X438912Y507492D02*
X487680Y507492D01*
X438912Y507492D02*
X393192Y461772D01*
X384048Y461772D01*
X371856Y449580D01*
X487680Y507492D02*
X488700Y509000D01*
X371856Y449580D02*
X371000Y448900D01*
X178308Y364236D02*
X149352Y335280D01*
X148000Y335200D01*
X348996Y452628D02*
X348996Y480060D01*
X348996Y452628D02*
X345948Y449580D01*
X348996Y480060D02*
X349200Y481000D01*
X345948Y449580D02*
X345600Y448900D01*
X504444Y507492D02*
X513588Y507492D01*
X504444Y507492D02*
X487680Y490728D01*
X446532Y490728D01*
X414528Y458724D01*
X393192Y458724D01*
X374904Y440436D01*
X361188Y440436D01*
X348996Y452628D01*
X513588Y507492D02*
X514100Y509000D01*
X348996Y452628D02*
X345600Y448900D01*
D17*
X178308Y364236D03*
D16*
X265176Y280416D02*
X289560Y280416D01*
X265176Y280416D02*
X264600Y280000D01*
X289560Y280416D02*
X290000Y280000D01*
X263652Y280416D02*
X263652Y367284D01*
X262128Y368808D01*
X262128Y428244D01*
X280416Y446532D01*
X280416Y547116D01*
X263652Y280416D02*
X264600Y280000D01*
X280416Y547116D02*
X279200Y548000D01*
X306324Y341376D02*
X306324Y288036D01*
X313944Y280416D01*
X306324Y341376D02*
X305500Y341900D01*
X313944Y280416D02*
X315400Y280000D01*
X141732Y316992D02*
X114300Y316992D01*
X141732Y316992D02*
X181356Y277368D01*
X187452Y277368D01*
X198120Y288036D01*
X198120Y333756D01*
X114300Y316992D02*
X113300Y317300D01*
X198120Y333756D02*
X198800Y335200D01*
X359664Y249936D02*
X364236Y249936D01*
X359664Y249936D02*
X341376Y268224D01*
X237744Y268224D01*
X217932Y288036D01*
X198120Y288036D01*
X364236Y249936D02*
X364600Y248600D01*
X384048Y280416D02*
X438912Y280416D01*
X384048Y280416D02*
X365760Y298704D01*
X438912Y280416D02*
X439600Y280000D01*
X365760Y298704D02*
X364600Y299400D01*
X35052Y315468D02*
X35052Y353568D01*
X44196Y362712D01*
X44196Y402336D01*
X32004Y414528D01*
X32004Y697992D01*
X45720Y711708D01*
X35052Y315468D02*
X34600Y314600D01*
X45720Y711708D02*
X46800Y712700D01*
X477012Y280416D02*
X489204Y280416D01*
X477012Y280416D02*
X467868Y289560D01*
X461772Y289560D01*
X443484Y271272D01*
X260604Y271272D01*
X207264Y324612D01*
X207264Y339852D01*
X202692Y344424D01*
X195072Y344424D01*
X188976Y338328D01*
X188976Y309372D01*
X193548Y304800D01*
X193548Y292608D01*
X184404Y283464D01*
X489204Y280416D02*
X490400Y280000D01*
D17*
X184404Y283464D03*
D16*
X126492Y705612D02*
X105156Y705612D01*
X99060Y711708D01*
X126492Y705612D02*
X127500Y705000D01*
X99060Y711708D02*
X97600Y712700D01*
X455676Y278892D02*
X464820Y278892D01*
X455676Y278892D02*
X435864Y259080D01*
X382524Y259080D01*
X373380Y249936D01*
X373380Y245364D01*
X367284Y239268D01*
X361188Y239268D01*
X352044Y248412D01*
X352044Y252984D01*
X339852Y265176D01*
X236220Y265176D01*
X216408Y284988D01*
X199644Y284988D01*
X188976Y274320D01*
X161544Y274320D01*
X146304Y289560D01*
X108204Y289560D01*
X464820Y278892D02*
X465000Y280000D01*
D17*
X108204Y289560D03*
D16*
X89916Y280416D02*
X89916Y344424D01*
X112776Y367284D01*
X89916Y280416D02*
X89600Y280000D01*
X112776Y367284D02*
X113300Y368100D01*
X80772Y396240D02*
X80772Y406908D01*
X108204Y434340D01*
X80772Y396240D02*
X80000Y395000D01*
X108204Y434340D02*
X109100Y435200D01*
X150876Y426720D02*
X150876Y396240D01*
X150876Y426720D02*
X158496Y434340D01*
X150876Y396240D02*
X150000Y395000D01*
X158496Y434340D02*
X159900Y435200D01*
X45720Y428244D02*
X45720Y405384D01*
X80772Y370332D01*
X80772Y275844D01*
X105156Y251460D01*
X45720Y428244D02*
X45200Y429000D01*
X213360Y278892D02*
X185928Y251460D01*
X184600Y250600D01*
D17*
X105156Y251460D03*
X213360Y278892D03*
D16*
X50292Y449580D02*
X50292Y484632D01*
X50292Y449580D02*
X70104Y429768D01*
X50292Y484632D02*
X50200Y485200D01*
X70104Y429768D02*
X70600Y429000D01*
X185928Y487680D02*
X185928Y301752D01*
X184600Y301400D01*
X185928Y487680D02*
X186300Y488700D01*
X89916Y496824D02*
X89916Y548640D01*
X89916Y496824D02*
X100584Y486156D01*
X89916Y548640D02*
X89600Y550000D01*
X100584Y486156D02*
X101000Y485200D01*
X541020Y342900D02*
X541020Y320040D01*
X540000Y320000D01*
X541020Y342900D02*
X540000Y343000D01*
X541020Y344424D02*
X541020Y365760D01*
X540000Y366000D01*
X541020Y344424D02*
X540000Y343000D01*
X541020Y367284D02*
X541020Y388620D01*
X540000Y389000D01*
X541020Y367284D02*
X540000Y366000D01*
X542544Y422148D02*
X542544Y440436D01*
X542544Y422148D02*
X548640Y416052D01*
X548640Y397764D01*
X541020Y390144D01*
X542544Y440436D02*
X541200Y441900D01*
X541020Y390144D02*
X540000Y389000D01*
M02*
