G04 EAGLE Gerber RS-274X export*
G75*
%MOMM*%
%FSLAX34Y34*%
%LPD*%
%INSilkscreen Bottom*%
%IPPOS*%
%AMOC8*
5,1,8,0,0,1.08239X$1,22.5*%
G01*
%ADD10C,0.203200*%
%ADD11C,0.152400*%


D10*
X108126Y460200D02*
X161800Y460200D01*
D11*
X162107Y460196D01*
X162414Y460185D01*
X162720Y460167D01*
X163026Y460141D01*
X163331Y460107D01*
X163635Y460067D01*
X163938Y460019D01*
X164240Y459963D01*
X164540Y459901D01*
X164839Y459831D01*
X165136Y459754D01*
X165432Y459670D01*
X165725Y459578D01*
X166015Y459480D01*
X166303Y459375D01*
X166589Y459262D01*
X166872Y459143D01*
X167152Y459017D01*
X167429Y458885D01*
X167702Y458745D01*
X167972Y458599D01*
X168238Y458447D01*
X168501Y458288D01*
X168760Y458123D01*
X169014Y457952D01*
X169265Y457775D01*
X169511Y457591D01*
X169753Y457402D01*
X169989Y457207D01*
X170222Y457006D01*
X170449Y456800D01*
X170671Y456588D01*
X170888Y456371D01*
X171100Y456149D01*
X171306Y455922D01*
X171507Y455689D01*
X171702Y455453D01*
X171891Y455211D01*
X172075Y454965D01*
X172252Y454714D01*
X172423Y454460D01*
X172588Y454201D01*
X172747Y453938D01*
X172899Y453672D01*
X173045Y453402D01*
X173185Y453129D01*
X173317Y452852D01*
X173443Y452572D01*
X173562Y452289D01*
X173675Y452003D01*
X173780Y451715D01*
X173878Y451425D01*
X173970Y451132D01*
X174054Y450836D01*
X174131Y450539D01*
X174201Y450240D01*
X174263Y449940D01*
X174319Y449638D01*
X174367Y449335D01*
X174407Y449031D01*
X174441Y448726D01*
X174467Y448420D01*
X174485Y448114D01*
X174496Y447807D01*
X174500Y447500D01*
D10*
X174500Y422900D01*
D11*
X174496Y422593D01*
X174485Y422286D01*
X174467Y421980D01*
X174441Y421674D01*
X174407Y421369D01*
X174367Y421065D01*
X174319Y420762D01*
X174263Y420460D01*
X174201Y420160D01*
X174131Y419861D01*
X174054Y419564D01*
X173970Y419268D01*
X173878Y418975D01*
X173780Y418685D01*
X173675Y418397D01*
X173562Y418111D01*
X173443Y417828D01*
X173317Y417548D01*
X173185Y417271D01*
X173045Y416998D01*
X172899Y416728D01*
X172747Y416462D01*
X172588Y416199D01*
X172423Y415940D01*
X172252Y415686D01*
X172075Y415435D01*
X171891Y415189D01*
X171702Y414947D01*
X171507Y414711D01*
X171306Y414478D01*
X171100Y414251D01*
X170888Y414029D01*
X170671Y413812D01*
X170449Y413600D01*
X170222Y413394D01*
X169989Y413193D01*
X169753Y412998D01*
X169511Y412809D01*
X169265Y412625D01*
X169014Y412448D01*
X168760Y412277D01*
X168501Y412112D01*
X168238Y411953D01*
X167972Y411801D01*
X167702Y411655D01*
X167429Y411515D01*
X167152Y411383D01*
X166872Y411257D01*
X166589Y411138D01*
X166303Y411025D01*
X166015Y410920D01*
X165725Y410822D01*
X165432Y410730D01*
X165136Y410646D01*
X164839Y410569D01*
X164540Y410499D01*
X164240Y410437D01*
X163938Y410381D01*
X163635Y410333D01*
X163331Y410293D01*
X163026Y410259D01*
X162720Y410233D01*
X162414Y410215D01*
X162107Y410204D01*
X161800Y410200D01*
D10*
X107200Y410200D01*
D11*
X106893Y410204D01*
X106586Y410215D01*
X106280Y410233D01*
X105974Y410259D01*
X105669Y410293D01*
X105365Y410333D01*
X105062Y410381D01*
X104760Y410437D01*
X104460Y410499D01*
X104161Y410569D01*
X103864Y410646D01*
X103568Y410730D01*
X103275Y410822D01*
X102985Y410920D01*
X102697Y411025D01*
X102411Y411138D01*
X102128Y411257D01*
X101848Y411383D01*
X101571Y411515D01*
X101298Y411655D01*
X101028Y411801D01*
X100762Y411953D01*
X100499Y412112D01*
X100240Y412277D01*
X99986Y412448D01*
X99735Y412625D01*
X99489Y412809D01*
X99247Y412998D01*
X99011Y413193D01*
X98778Y413394D01*
X98551Y413600D01*
X98329Y413812D01*
X98112Y414029D01*
X97900Y414251D01*
X97694Y414478D01*
X97493Y414711D01*
X97298Y414947D01*
X97109Y415189D01*
X96925Y415435D01*
X96748Y415686D01*
X96577Y415940D01*
X96412Y416199D01*
X96253Y416462D01*
X96101Y416728D01*
X95955Y416998D01*
X95815Y417271D01*
X95683Y417548D01*
X95557Y417828D01*
X95438Y418111D01*
X95325Y418397D01*
X95220Y418685D01*
X95122Y418975D01*
X95030Y419268D01*
X94946Y419564D01*
X94869Y419861D01*
X94799Y420160D01*
X94737Y420460D01*
X94681Y420762D01*
X94633Y421065D01*
X94593Y421369D01*
X94559Y421674D01*
X94533Y421980D01*
X94515Y422286D01*
X94504Y422593D01*
X94500Y422900D01*
D10*
X94500Y447500D01*
D11*
X94504Y447807D01*
X94515Y448114D01*
X94533Y448420D01*
X94559Y448726D01*
X94593Y449031D01*
X94633Y449335D01*
X94681Y449638D01*
X94737Y449940D01*
X94799Y450240D01*
X94869Y450539D01*
X94946Y450836D01*
X95030Y451132D01*
X95122Y451425D01*
X95220Y451715D01*
X95325Y452003D01*
X95438Y452289D01*
X95557Y452572D01*
X95683Y452852D01*
X95815Y453129D01*
X95955Y453402D01*
X96101Y453672D01*
X96253Y453938D01*
X96412Y454201D01*
X96577Y454460D01*
X96748Y454714D01*
X96925Y454965D01*
X97109Y455211D01*
X97298Y455453D01*
X97493Y455689D01*
X97694Y455922D01*
X97900Y456149D01*
X98112Y456371D01*
X98329Y456588D01*
X98551Y456800D01*
X98778Y457006D01*
X99011Y457207D01*
X99247Y457402D01*
X99489Y457591D01*
X99735Y457775D01*
X99986Y457952D01*
X100240Y458123D01*
X100499Y458288D01*
X100762Y458447D01*
X101028Y458599D01*
X101298Y458745D01*
X101571Y458885D01*
X101848Y459017D01*
X102128Y459143D01*
X102411Y459262D01*
X102697Y459375D01*
X102985Y459480D01*
X103275Y459578D01*
X103568Y459670D01*
X103864Y459754D01*
X104161Y459831D01*
X104460Y459901D01*
X104760Y459963D01*
X105062Y460019D01*
X105365Y460067D01*
X105669Y460107D01*
X105974Y460141D01*
X106280Y460167D01*
X106586Y460185D01*
X106893Y460196D01*
X107200Y460200D01*
M02*
