G04 EAGLE Gerber RS-274X export*
G75*
%MOMM*%
%FSLAX34Y34*%
%LPD*%
%INSoldermask Top*%
%IPPOS*%
%AMOC8*
5,1,8,0,0,1.08239X$1,22.5*%
G01*
%ADD10R,1.411200X1.411200*%
%ADD11C,1.411200*%
%ADD12R,1.611200X1.611200*%
%ADD13C,1.611200*%
%ADD14P,1.527469X8X292.500000*%
%ADD15P,1.527469X8X22.500000*%
%ADD16C,0.959600*%


D10*
X240400Y220000D03*
X490400Y280000D03*
D11*
X439600Y280000D03*
X465000Y280000D03*
X41300Y675700D03*
X92100Y675700D03*
X465000Y441900D03*
X541200Y441900D03*
X438800Y373800D03*
X438800Y450000D03*
X326900Y335200D03*
X377700Y335200D03*
X488700Y509000D03*
X514100Y509000D03*
X229300Y341900D03*
X305500Y341900D03*
X148000Y335200D03*
X198800Y335200D03*
X127500Y705000D03*
X178300Y705000D03*
X46800Y712700D03*
X97600Y712700D03*
X113300Y368100D03*
X113300Y317300D03*
X123720Y655700D03*
X174520Y655700D03*
X71300Y316500D03*
X71300Y367300D03*
X159900Y435200D03*
X109100Y435200D03*
X45200Y429000D03*
X70600Y429000D03*
X135500Y488700D03*
X186300Y488700D03*
X50200Y485200D03*
X101000Y485200D03*
X362200Y599000D03*
X387600Y599000D03*
D10*
X234400Y541700D03*
D11*
X254400Y541700D03*
D10*
X294000Y490800D03*
D11*
X319400Y490800D03*
X214700Y655700D03*
X265500Y655700D03*
X213300Y708700D03*
X264100Y708700D03*
X291700Y722700D03*
X342500Y722700D03*
X289500Y681400D03*
X340300Y681400D03*
X415800Y335200D03*
X466600Y335200D03*
X424400Y598700D03*
X475200Y598700D03*
X523100Y573300D03*
X523100Y624100D03*
D12*
X236900Y486000D03*
D13*
X262300Y486000D03*
D10*
X490400Y550000D03*
D11*
X439600Y550000D03*
X465000Y550000D03*
D10*
X392800Y220000D03*
X194500Y372700D03*
D11*
X219900Y372700D03*
X219900Y448900D03*
X194500Y448900D03*
X245300Y372700D03*
X270700Y372700D03*
X245300Y448900D03*
X270700Y448900D03*
D10*
X320200Y372700D03*
D11*
X345600Y372700D03*
X345600Y448900D03*
X320200Y448900D03*
X371000Y372700D03*
X396400Y372700D03*
X371000Y448900D03*
X396400Y448900D03*
D10*
X176900Y220000D03*
X315400Y280000D03*
D11*
X264600Y280000D03*
X290000Y280000D03*
D10*
X316600Y220000D03*
D14*
X52900Y574400D03*
X52900Y549000D03*
X52900Y523600D03*
D15*
X161300Y534000D03*
X186700Y534000D03*
X212100Y534000D03*
X359500Y655200D03*
X384900Y655200D03*
X410300Y655200D03*
D14*
X438700Y520600D03*
X438700Y495200D03*
X438700Y469800D03*
D11*
X244600Y573600D03*
X244600Y624400D03*
X124600Y573600D03*
X124600Y624400D03*
X444600Y635100D03*
X444600Y685900D03*
X474600Y635100D03*
X474600Y685900D03*
X340000Y650000D03*
X289200Y650000D03*
X334600Y624400D03*
X334600Y573600D03*
X499200Y658000D03*
X550000Y658000D03*
X499200Y681000D03*
X550000Y681000D03*
X499200Y704000D03*
X550000Y704000D03*
X479200Y482000D03*
X530000Y482000D03*
X480000Y705000D03*
X429200Y705000D03*
X214600Y573600D03*
X214600Y624400D03*
D15*
X349200Y532000D03*
X400000Y532000D03*
X374600Y557400D03*
D11*
X489200Y320000D03*
X540000Y320000D03*
X489200Y343000D03*
X540000Y343000D03*
X489200Y389000D03*
X540000Y389000D03*
X342500Y249800D03*
X342500Y300600D03*
X540000Y366000D03*
X489200Y366000D03*
X489200Y412000D03*
X540000Y412000D03*
X239200Y305000D03*
X290000Y305000D03*
X279200Y548000D03*
X330000Y548000D03*
X349200Y481000D03*
X400000Y481000D03*
X184600Y573600D03*
X184600Y624400D03*
X364600Y248600D03*
X364600Y299400D03*
X34600Y314600D03*
X34600Y365400D03*
X29200Y395000D03*
X80000Y395000D03*
X99200Y395000D03*
X150000Y395000D03*
X214600Y253600D03*
X214600Y304400D03*
X184600Y250600D03*
X184600Y301400D03*
X386300Y249800D03*
X386300Y300600D03*
X64600Y644400D03*
X64600Y593600D03*
X94600Y573600D03*
X94600Y624400D03*
X274600Y573600D03*
X274600Y624400D03*
X304600Y573600D03*
X304600Y624400D03*
X499200Y726000D03*
X550000Y726000D03*
X154600Y573600D03*
X154600Y624400D03*
D10*
X140400Y280000D03*
D11*
X89600Y280000D03*
X115000Y280000D03*
D10*
X140400Y550000D03*
D11*
X89600Y550000D03*
X115000Y550000D03*
D15*
X354600Y700000D03*
X380000Y700000D03*
X405400Y700000D03*
D16*
X179832Y515112D03*
X178308Y364236D03*
X184404Y283464D03*
X108204Y289560D03*
X105156Y251460D03*
X213360Y278892D03*
M02*
